<svg version="1.0" preserveAspectRatio="xMidYMid meet" viewBox="34.5 129.749996886 314.25 115.49999722800001" zoomAndPan="magnify" xmlns:xlink="http://www.w3.org/1999/xlink" xmlns="http://www.w3.org/2000/svg" style="max-height: 500px" width="314.25" height="115.49999722800001"><defs><g/><clipPath id="aba38b08a6"><rect height="97" y="0" width="192" x="0"/></clipPath><clipPath id="6a73476554"><path clip-rule="nonzero" d="M 237.261719 134.070312 L 343.761719 134.070312 L 343.761719 240.570312 L 237.261719 240.570312 Z M 237.261719 134.070312"/></clipPath></defs><g transform="matrix(1, 0, 0, 1, 37, 139)"><g clip-path="url(#aba38b08a6)"><g fill-opacity="1" fill="#ffffff"><g transform="translate(1.0866, 77.343456)"><g><path d="M 3.15625 -48.953125 L 3.15625 -57.734375 L 49.21875 -57.734375 L 49.21875 -48.953125 L 31.375 -48.953125 L 31.375 0 L 21 0 L 21 -48.953125 Z M 3.15625 -48.953125"/></g></g></g><g fill-opacity="1" fill="#ffffff"><g transform="translate(47.587562, 77.343456)"><g><path d="M 32.84375 -18.203125 L 32.84375 -43.296875 L 43.046875 -43.296875 L 43.046875 0 L 33.140625 0 L 33.140625 -7.6875 L 32.703125 -7.6875 C 31.722656 -5.269531 30.117188 -3.289062 27.890625 -1.75 C 25.660156 -0.207031 22.921875 0.5625 19.671875 0.5625 C 16.835938 0.5625 14.332031 -0.0664062 12.15625 -1.328125 C 9.988281 -2.597656 8.296875 -4.453125 7.078125 -6.890625 C 5.859375 -9.328125 5.25 -12.273438 5.25 -15.734375 L 5.25 -43.296875 L 15.453125 -43.296875 L 15.453125 -17.3125 C 15.453125 -14.5625 16.203125 -12.378906 17.703125 -10.765625 C 19.203125 -9.148438 21.175781 -8.34375 23.625 -8.34375 C 25.125 -8.34375 26.578125 -8.707031 27.984375 -9.4375 C 29.398438 -10.175781 30.5625 -11.269531 31.46875 -12.71875 C 32.382812 -14.175781 32.84375 -16.003906 32.84375 -18.203125 Z M 32.84375 -18.203125"/></g></g></g><g fill-opacity="1" fill="#ffffff"><g transform="translate(95.864582, 77.343456)"><g><path d="M 15.453125 -25.375 L 15.453125 0 L 5.25 0 L 5.25 -43.296875 L 15 -43.296875 L 15 -35.9375 L 15.5 -35.9375 C 16.5 -38.363281 18.09375 -40.289062 20.28125 -41.71875 C 22.46875 -43.144531 25.175781 -43.859375 28.40625 -43.859375 C 31.394531 -43.859375 34.003906 -43.21875 36.234375 -41.9375 C 38.460938 -40.664062 40.191406 -38.816406 41.421875 -36.390625 C 42.648438 -33.960938 43.253906 -31.019531 43.234375 -27.5625 L 43.234375 0 L 33.03125 0 L 33.03125 -25.984375 C 33.03125 -28.878906 32.28125 -31.144531 30.78125 -32.78125 C 29.289062 -34.414062 27.234375 -35.234375 24.609375 -35.234375 C 22.816406 -35.234375 21.226562 -34.84375 19.84375 -34.0625 C 18.46875 -33.28125 17.390625 -32.15625 16.609375 -30.6875 C 15.835938 -29.226562 15.453125 -27.457031 15.453125 -25.375 Z M 15.453125 -25.375"/></g></g></g><g fill-opacity="1" fill="#ffffff"><g transform="translate(144.254328, 77.343456)"><g><path d="M 24.40625 0.84375 C 20.070312 0.84375 16.328125 -0.0625 13.171875 -1.875 C 10.023438 -3.6875 7.601562 -6.257812 5.90625 -9.59375 C 4.21875 -12.925781 3.375 -16.859375 3.375 -21.390625 C 3.375 -25.847656 4.222656 -29.757812 5.921875 -33.125 C 7.628906 -36.5 10.015625 -39.128906 13.078125 -41.015625 C 16.140625 -42.910156 19.738281 -43.859375 23.875 -43.859375 C 26.539062 -43.859375 29.0625 -43.429688 31.4375 -42.578125 C 33.820312 -41.722656 35.925781 -40.398438 37.75 -38.609375 C 39.582031 -36.828125 41.023438 -34.554688 42.078125 -31.796875 C 43.128906 -29.046875 43.65625 -25.773438 43.65625 -21.984375 L 43.65625 -18.859375 L 8.171875 -18.859375 L 8.171875 -25.734375 L 33.875 -25.734375 C 33.863281 -27.691406 33.441406 -29.4375 32.609375 -30.96875 C 31.785156 -32.5 30.632812 -33.703125 29.15625 -34.578125 C 27.6875 -35.460938 25.972656 -35.90625 24.015625 -35.90625 C 21.929688 -35.90625 20.097656 -35.398438 18.515625 -34.390625 C 16.941406 -33.390625 15.71875 -32.078125 14.84375 -30.453125 C 13.96875 -28.828125 13.519531 -27.046875 13.5 -25.109375 L 13.5 -19.109375 C 13.5 -16.585938 13.957031 -14.429688 14.875 -12.640625 C 15.800781 -10.847656 17.085938 -9.476562 18.734375 -8.53125 C 20.390625 -7.582031 22.328125 -7.109375 24.546875 -7.109375 C 26.035156 -7.109375 27.378906 -7.316406 28.578125 -7.734375 C 29.785156 -8.160156 30.828125 -8.785156 31.703125 -9.609375 C 32.585938 -10.441406 33.257812 -11.46875 33.71875 -12.6875 L 43.234375 -11.609375 C 42.640625 -9.097656 41.5 -6.90625 39.8125 -5.03125 C 38.132812 -3.164062 35.988281 -1.71875 33.375 -0.6875 C 30.757812 0.332031 27.769531 0.84375 24.40625 0.84375 Z M 24.40625 0.84375"/></g></g></g></g></g><g clip-path="url(#6a73476554)"><path fill-rule="nonzero" fill-opacity="1" d="M 262.527344 240.921875 L 237.261719 215.65625 L 265.421875 187.496094 L 237.261719 159.335938 L 262.527344 134.070312 L 290.6875 162.230469 L 318.847656 134.070312 L 344.113281 159.335938 L 315.953125 187.496094 L 344.113281 215.65625 L 318.847656 240.921875 L 300.101562 222.171875 C 292.160156 214.230469 292.160156 201.308594 300.101562 193.363281 L 305.96875 187.496094 L 290.6875 172.214844 L 275.410156 187.496094 L 281.277344 193.363281 C 285.125 197.210938 287.246094 202.328125 287.246094 207.769531 C 287.246094 213.210938 285.125 218.324219 281.277344 222.171875 Z M 310.960938 192.488281 L 305.09375 198.355469 C 299.902344 203.546875 299.902344 211.992188 305.09375 217.179688 L 318.847656 230.9375 L 334.128906 215.65625 Z M 247.25 215.65625 L 262.527344 230.933594 L 276.285156 217.179688 C 278.796875 214.667969 280.183594 211.324219 280.183594 207.769531 C 280.183594 204.214844 278.796875 200.871094 276.285156 198.355469 L 270.417969 192.488281 Z M 247.25 159.335938 L 270.417969 182.503906 L 285.695312 167.222656 L 262.527344 144.058594 Z M 295.683594 167.222656 L 310.960938 182.503906 L 334.128906 159.335938 L 318.847656 144.058594 Z M 295.683594 167.222656" fill="#9e4b8a"/></g></svg>