<svg xmlns="http://www.w3.org/2000/svg" xmlns:xlink="http://www.w3.org/1999/xlink" width="500" zoomAndPan="magnify" viewBox="0 0 375 374.999991" height="500" preserveAspectRatio="xMidYMid meet" version="1.0"><defs><clipPath id="091d17acb8"><path d="M 187.5 0 C 83.945312 0 0 83.945312 0 187.5 C 0 291.054688 83.945312 375 187.5 375 C 291.054688 375 375 291.054688 375 187.5 C 375 83.945312 291.054688 0 187.5 0 Z M 187.5 0 " clip-rule="nonzero"/></clipPath><clipPath id="0cbd7612d1"><path d="M 0 0 L 375 0 L 375 375 L 0 375 Z M 0 0 " clip-rule="nonzero"/></clipPath><clipPath id="589b6c6c65"><path d="M 187.5 0 C 83.945312 0 0 83.945312 0 187.5 C 0 291.054688 83.945312 375 187.5 375 C 291.054688 375 375 291.054688 375 187.5 C 375 83.945312 291.054688 0 187.5 0 Z M 187.5 0 " clip-rule="nonzero"/></clipPath><clipPath id="58d7ff769f"><rect x="0" width="375" y="0" height="375"/></clipPath><clipPath id="177af29dcb"><path d="M 34.992188 34.992188 L 340 34.992188 L 340 340 L 34.992188 340 Z M 34.992188 34.992188 " clip-rule="nonzero"/></clipPath></defs><g clip-path="url(#091d17acb8)"><g transform="matrix(1, 0, 0, 1, 0, 0)"><g clip-path="url(#58d7ff769f)"><g clip-path="url(#0cbd7612d1)"><g clip-path="url(#589b6c6c65)"><rect x="-82.5" width="540" fill="#ca6cb3" height="539.999987" y="-82.499998" fill-opacity="1"/></g></g></g></g></g><g clip-path="url(#177af29dcb)"><path fill="#1e1e2f" d="M 107.113281 339.996094 L 34.992188 267.878906 L 115.375 187.496094 L 34.992188 107.113281 L 107.113281 34.992188 L 187.492188 115.375 L 267.875 34.992188 L 339.996094 107.113281 L 259.613281 187.496094 L 339.996094 267.878906 L 267.875 339.992188 L 214.359375 286.480469 C 191.6875 263.804688 191.6875 226.917969 214.359375 204.246094 L 231.109375 187.496094 L 187.492188 143.878906 L 143.878906 187.496094 L 160.628906 204.246094 C 171.609375 215.226562 177.660156 229.828125 177.660156 245.363281 C 177.660156 260.894531 171.609375 275.496094 160.628906 286.480469 Z M 245.359375 201.746094 L 228.609375 218.496094 C 213.796875 233.3125 213.796875 257.414062 228.609375 272.226562 L 267.875 311.492188 L 311.488281 267.878906 Z M 63.5 267.878906 L 107.113281 311.488281 L 146.375 272.226562 C 153.550781 265.050781 157.503906 255.507812 157.503906 245.363281 C 157.503906 235.214844 153.550781 225.675781 146.375 218.496094 L 129.625 201.75 Z M 63.5 107.113281 L 129.625 173.242188 L 173.242188 129.628906 L 107.113281 63.5 Z M 201.746094 129.628906 L 245.359375 173.242188 L 311.488281 107.113281 L 267.875 63.5 Z M 201.746094 129.628906 " fill-opacity="1" fill-rule="nonzero"/></g></svg>