<svg version="1.0" preserveAspectRatio="xMidYMid meet" viewBox="0 129.749996886 378 115.49999722800001" zoomAndPan="magnify" xmlns:xlink="http://www.w3.org/1999/xlink" xmlns="http://www.w3.org/2000/svg" style="max-height: 500px" width="378" height="115.49999722800001"><defs><g/><clipPath id="d967d24752"><rect height="89" y="0" width="282" x="0"/></clipPath><clipPath id="a08b1c4cef"><path clip-rule="nonzero" d="M 273.582031 0.792969 L 375 0.792969 L 375 102.238281 L 273.582031 102.238281 Z M 273.582031 0.792969"/></clipPath><clipPath id="51192818d1"><rect height="103" y="0" width="375" x="0"/></clipPath></defs><g transform="matrix(1, 0, 0, 1, 0, 136)"><g clip-path="url(#51192818d1)"><g transform="matrix(1, 0, 0, 1, 0, 7)"><g clip-path="url(#d967d24752)"><g fill-opacity="1" fill="#efa3dc"><g transform="translate(0.0000045, 70.826124)"><g><path d="M 5.234375 0 L 5.234375 -53.109375 L 25.15625 -53.109375 C 29.226562 -53.109375 32.648438 -52.34375 35.421875 -50.8125 C 38.203125 -49.289062 40.304688 -47.203125 41.734375 -44.546875 C 43.160156 -41.898438 43.875 -38.890625 43.875 -35.515625 C 43.875 -32.117188 43.15625 -29.097656 41.71875 -26.453125 C 40.28125 -23.804688 38.160156 -21.722656 35.359375 -20.203125 C 32.566406 -18.691406 29.117188 -17.9375 25.015625 -17.9375 L 11.828125 -17.9375 L 11.828125 -25.84375 L 23.71875 -25.84375 C 26.101562 -25.84375 28.054688 -26.257812 29.578125 -27.09375 C 31.097656 -27.925781 32.226562 -29.066406 32.96875 -30.515625 C 33.707031 -31.972656 34.078125 -33.640625 34.078125 -35.515625 C 34.078125 -37.398438 33.707031 -39.0625 32.96875 -40.5 C 32.226562 -41.9375 31.09375 -43.054688 29.5625 -43.859375 C 28.039062 -44.660156 26.078125 -45.0625 23.671875 -45.0625 L 14.859375 -45.0625 L 14.859375 0 Z M 5.234375 0"/></g></g></g><g fill-opacity="1" fill="#efa3dc"><g transform="translate(46.274531, 70.826124)"><g><path d="M 16.28125 0.796875 C 13.757812 0.796875 11.488281 0.34375 9.46875 -0.5625 C 7.457031 -1.46875 5.867188 -2.8125 4.703125 -4.59375 C 3.535156 -6.375 2.953125 -8.566406 2.953125 -11.171875 C 2.953125 -13.421875 3.363281 -15.28125 4.1875 -16.75 C 5.019531 -18.21875 6.15625 -19.390625 7.59375 -20.265625 C 9.03125 -21.148438 10.648438 -21.820312 12.453125 -22.28125 C 14.265625 -22.738281 16.140625 -23.070312 18.078125 -23.28125 C 20.410156 -23.519531 22.300781 -23.738281 23.75 -23.9375 C 25.195312 -24.144531 26.253906 -24.457031 26.921875 -24.875 C 27.585938 -25.300781 27.921875 -25.960938 27.921875 -26.859375 L 27.921875 -27.015625 C 27.921875 -28.972656 27.34375 -30.484375 26.1875 -31.546875 C 25.03125 -32.617188 23.363281 -33.15625 21.1875 -33.15625 C 18.882812 -33.15625 17.0625 -32.65625 15.71875 -31.65625 C 14.382812 -30.65625 13.484375 -29.472656 13.015625 -28.109375 L 4.25 -29.34375 C 4.945312 -31.769531 6.085938 -33.796875 7.671875 -35.421875 C 9.265625 -37.054688 11.207031 -38.285156 13.5 -39.109375 C 15.800781 -39.929688 18.34375 -40.34375 21.125 -40.34375 C 23.050781 -40.34375 24.960938 -40.117188 26.859375 -39.671875 C 28.765625 -39.222656 30.503906 -38.484375 32.078125 -37.453125 C 33.648438 -36.421875 34.914062 -35.023438 35.875 -33.265625 C 36.832031 -31.503906 37.3125 -29.300781 37.3125 -26.65625 L 37.3125 0 L 28.28125 0 L 28.28125 -5.46875 L 27.984375 -5.46875 C 27.410156 -4.363281 26.609375 -3.332031 25.578125 -2.375 C 24.546875 -1.414062 23.253906 -0.644531 21.703125 -0.0625 C 20.160156 0.507812 18.351562 0.796875 16.28125 0.796875 Z M 18.71875 -6.09375 C 20.601562 -6.09375 22.238281 -6.46875 23.625 -7.21875 C 25.007812 -7.96875 26.078125 -8.960938 26.828125 -10.203125 C 27.578125 -11.453125 27.953125 -12.8125 27.953125 -14.28125 L 27.953125 -18.984375 C 27.660156 -18.734375 27.160156 -18.503906 26.453125 -18.296875 C 25.753906 -18.097656 24.972656 -17.921875 24.109375 -17.765625 C 23.242188 -17.609375 22.390625 -17.46875 21.546875 -17.34375 C 20.703125 -17.226562 19.96875 -17.125 19.34375 -17.03125 C 17.945312 -16.84375 16.691406 -16.53125 15.578125 -16.09375 C 14.472656 -15.664062 13.597656 -15.066406 12.953125 -14.296875 C 12.316406 -13.523438 12 -12.535156 12 -11.328125 C 12 -9.597656 12.628906 -8.289062 13.890625 -7.40625 C 15.160156 -6.53125 16.769531 -6.09375 18.71875 -6.09375 Z M 18.71875 -6.09375"/></g></g></g><g fill-opacity="1" fill="#efa3dc"><g transform="translate(88.219794, 70.826124)"><g><path d="M 8.03125 11.28125 L 8.03125 -54.609375 L 26.78125 -54.609375 L 26.78125 -47.390625 L 17.0625 -47.390625 L 17.0625 4.09375 L 26.78125 4.09375 L 26.78125 11.28125 Z M 8.03125 11.28125"/></g></g></g><g fill-opacity="1" fill="#efa3dc"><g transform="translate(116.943736, 70.826124)"><g><path d="M 4.828125 14.9375 L 4.828125 -39.828125 L 14.046875 -39.828125 L 14.046875 -33.234375 L 14.59375 -33.234375 C 15.082031 -34.203125 15.765625 -35.234375 16.640625 -36.328125 C 17.523438 -37.429688 18.71875 -38.375 20.21875 -39.15625 C 21.726562 -39.945312 23.648438 -40.34375 25.984375 -40.34375 C 29.054688 -40.34375 31.832031 -39.5625 34.3125 -38 C 36.789062 -36.4375 38.757812 -34.128906 40.21875 -31.078125 C 41.6875 -28.023438 42.421875 -24.285156 42.421875 -19.859375 C 42.421875 -15.484375 41.703125 -11.765625 40.265625 -8.703125 C 38.828125 -5.648438 36.875 -3.316406 34.40625 -1.703125 C 31.9375 -0.0976562 29.132812 0.703125 26 0.703125 C 23.71875 0.703125 21.828125 0.320312 20.328125 -0.4375 C 18.828125 -1.195312 17.617188 -2.117188 16.703125 -3.203125 C 15.796875 -4.285156 15.09375 -5.3125 14.59375 -6.28125 L 14.203125 -6.28125 L 14.203125 14.9375 Z M 14.03125 -19.90625 C 14.03125 -17.332031 14.394531 -15.078125 15.125 -13.140625 C 15.863281 -11.203125 16.925781 -9.691406 18.3125 -8.609375 C 19.707031 -7.535156 21.398438 -7 23.390625 -7 C 25.460938 -7 27.195312 -7.554688 28.59375 -8.671875 C 30 -9.785156 31.0625 -11.3125 31.78125 -13.25 C 32.5 -15.195312 32.859375 -17.414062 32.859375 -19.90625 C 32.859375 -22.382812 32.5 -24.582031 31.78125 -26.5 C 31.070312 -28.414062 30.019531 -29.914062 28.625 -31 C 27.226562 -32.09375 25.484375 -32.640625 23.390625 -32.640625 C 21.378906 -32.640625 19.671875 -32.113281 18.265625 -31.0625 C 16.867188 -30.007812 15.8125 -28.53125 15.09375 -26.625 C 14.382812 -24.726562 14.03125 -22.488281 14.03125 -19.90625 Z M 14.03125 -19.90625"/></g></g></g><g fill-opacity="1" fill="#efa3dc"><g transform="translate(161.63687, 70.826124)"><g><path d="M 20.6875 -54.609375 L 20.6875 11.28125 L 1.9375 11.28125 L 1.9375 4.09375 L 11.671875 4.09375 L 11.671875 -47.390625 L 1.9375 -47.390625 L 1.9375 -54.609375 Z M 20.6875 -54.609375"/></g></g></g><g fill-opacity="1" fill="#efa3dc"><g transform="translate(190.360812, 70.826124)"><g><path d="M 22.453125 0.78125 C 18.460938 0.78125 15.019531 -0.0507812 12.125 -1.71875 C 9.226562 -3.382812 7 -5.753906 5.4375 -8.828125 C 3.882812 -11.898438 3.109375 -15.519531 3.109375 -19.6875 C 3.109375 -23.78125 3.890625 -27.378906 5.453125 -30.484375 C 7.015625 -33.585938 9.203125 -36.003906 12.015625 -37.734375 C 14.835938 -39.472656 18.15625 -40.34375 21.96875 -40.34375 C 24.414062 -40.34375 26.734375 -39.945312 28.921875 -39.15625 C 31.109375 -38.375 33.046875 -37.160156 34.734375 -35.515625 C 36.421875 -33.878906 37.742188 -31.796875 38.703125 -29.265625 C 39.671875 -26.734375 40.15625 -23.71875 40.15625 -20.21875 L 40.15625 -17.34375 L 7.515625 -17.34375 L 7.515625 -23.671875 L 31.171875 -23.671875 C 31.148438 -25.472656 30.757812 -27.078125 30 -28.484375 C 29.238281 -29.890625 28.175781 -31 26.8125 -31.8125 C 25.457031 -32.625 23.882812 -33.03125 22.09375 -33.03125 C 20.175781 -33.03125 18.488281 -32.566406 17.03125 -31.640625 C 15.582031 -30.722656 14.457031 -29.515625 13.65625 -28.015625 C 12.851562 -26.515625 12.441406 -24.878906 12.421875 -23.109375 L 12.421875 -17.578125 C 12.421875 -15.265625 12.84375 -13.28125 13.6875 -11.625 C 14.53125 -9.976562 15.710938 -8.71875 17.234375 -7.84375 C 18.765625 -6.96875 20.546875 -6.53125 22.578125 -6.53125 C 23.941406 -6.53125 25.175781 -6.722656 26.28125 -7.109375 C 27.394531 -7.503906 28.359375 -8.082031 29.171875 -8.84375 C 29.984375 -9.601562 30.597656 -10.546875 31.015625 -11.671875 L 39.78125 -10.6875 C 39.21875 -8.363281 38.160156 -6.34375 36.609375 -4.625 C 35.066406 -2.90625 33.09375 -1.570312 30.6875 -0.625 C 28.289062 0.3125 25.546875 0.78125 22.453125 0.78125 Z M 22.453125 0.78125"/></g></g></g><g fill-opacity="1" fill="#efa3dc"><g transform="translate(233.628199, 70.826124)"><g><path d="M 4.828125 0 L 4.828125 -39.828125 L 13.921875 -39.828125 L 13.921875 -33.1875 L 14.34375 -33.1875 C 15.0625 -35.488281 16.304688 -37.265625 18.078125 -38.515625 C 19.859375 -39.765625 21.890625 -40.390625 24.171875 -40.390625 C 24.679688 -40.390625 25.257812 -40.367188 25.90625 -40.328125 C 26.5625 -40.285156 27.101562 -40.222656 27.53125 -40.140625 L 27.53125 -31.5 C 27.132812 -31.632812 26.507812 -31.757812 25.65625 -31.875 C 24.800781 -31.988281 23.976562 -32.046875 23.1875 -32.046875 C 21.46875 -32.046875 19.929688 -31.675781 18.578125 -30.9375 C 17.222656 -30.207031 16.15625 -29.191406 15.375 -27.890625 C 14.59375 -26.597656 14.203125 -25.101562 14.203125 -23.40625 L 14.203125 0 Z M 4.828125 0"/></g></g></g><g fill-opacity="1" fill="#efa3dc"><g transform="translate(262.597102, 70.826124)"><g/></g></g></g></g><g clip-path="url(#a08b1c4cef)"><path fill-rule="nonzero" fill-opacity="1" d="M 297.5625 102.199219 L 273.582031 78.222656 L 300.308594 51.496094 L 273.582031 24.769531 L 297.5625 0.792969 L 324.285156 27.515625 L 351.011719 0.792969 L 374.988281 24.769531 L 348.265625 51.496094 L 374.988281 78.222656 L 351.011719 102.199219 L 333.21875 84.40625 C 325.679688 76.867188 325.679688 64.601562 333.21875 57.066406 L 338.789062 51.496094 L 324.285156 36.992188 L 309.785156 51.496094 L 315.355469 57.066406 C 319.003906 60.714844 321.015625 65.570312 321.015625 70.734375 C 321.015625 75.898438 319.003906 80.753906 315.355469 84.40625 Z M 343.527344 56.234375 L 337.957031 61.804688 C 333.03125 66.726562 333.03125 74.742188 337.957031 79.667969 L 351.011719 92.722656 L 365.511719 78.222656 Z M 283.058594 78.222656 L 297.5625 92.722656 L 310.617188 79.667969 C 313 77.28125 314.316406 74.109375 314.316406 70.734375 C 314.316406 67.359375 313 64.1875 310.617188 61.804688 L 305.046875 56.234375 Z M 283.058594 24.769531 L 305.046875 46.757812 L 319.546875 32.253906 L 297.5625 10.269531 Z M 329.023438 32.253906 L 343.527344 46.757812 L 365.511719 24.769531 L 351.011719 10.269531 Z M 329.023438 32.253906" fill="#ca6cb3"/></g></g></g></svg>